<?xml version="1.0" encoding="UTF-8"?>
<svg height="16px" viewBox="0 0 16 16" width="16px" xmlns="http://www.w3.org/2000/svg" xmlns:xlink="http://www.w3.org/1999/xlink">
    <filter id="a" height="100%" width="100%" x="0%" y="0%">
        <feColorMatrix color-interpolation-filters="sRGB" values="0 0 0 0 1 0 0 0 0 1 0 0 0 0 1 0 0 0 1 0"/>
    </filter>
    <mask id="b">
        <g filter="url(#a)">
            <rect fill-opacity="0.1" height="19.2" width="19.2" x="-1.6" y="-1.6"/>
        </g>
    </mask>
    <clipPath id="c">
        <rect height="152" width="192"/>
    </clipPath>
    <mask id="d">
        <g filter="url(#a)">
            <rect fill-opacity="0.1" height="19.2" width="19.2" x="-1.6" y="-1.6"/>
        </g>
    </mask>
    <clipPath id="e">
        <rect height="152" width="192"/>
    </clipPath>
    <g mask="url(#b)">
        <g clip-path="url(#c)" transform="matrix(1 0 0 1 -168 -16)">
            <path d="m 128 114.65625 c -0.082031 4.089844 -3.378906 7.34375 -7.492188 7.34375 h -48.507812 l 48.003906 2 h 0.503906 c 3.246094 0 6.058594 -1.8125 7.492188 -4.480469 z m 0 0"/>
        </g>
    </g>
    <g fill="#241f31">
        <path d="m 2 11.976562 v 2.046876 h 11.5 v -2.046876 z m 0 0"/>
        <path d="m 2 3.5 v 10 h 2 v -10 z m 0 0"/>
        <path d="m 3 0 l -3 4 h 6 z m 0 0"/>
        <path d="m 16 13 l -4 3 v -6 z m 0 0"/>
    </g>
    <g mask="url(#d)">
        <g clip-path="url(#e)" transform="matrix(1 0 0 1 -168 -16)">
            <path d="m 128 118.65625 c -0.082031 4.089844 -3.378906 7.34375 -7.492188 7.34375 h -38.507812 l 38.003906 2 h 0.503906 c 3.246094 0 6.058594 -1.8125 7.492188 -4.480469 z m 0 0"/>
        </g>
    </g>
    <path d="m 7.40625 2.8125 c -0.316406 0 -0.554688 0.222656 -0.617188 0.480469 c -0.066406 0.253906 0.03125 0.558593 0.304688 0.714843 l 0.125 0.066407 v 1.042969 c -0.050781 0.078124 -0.097656 0.152343 -0.171875 0.28125 v 0.003906 c -0.121094 0.210937 -0.273437 0.476562 -0.4375 0.769531 c -0.328125 0.585937 -0.699219 1.316406 -0.992187 1.84375 c -0.289063 0.53125 -0.277344 1.242187 0.152343 1.78125 v 0.003906 c 0.351563 0.464844 0.898438 0.585938 1.328125 0.585938 h 3.308594 c 0.425781 0 0.976562 -0.121094 1.328125 -0.585938 c 0.425781 -0.539062 0.4375 -1.246093 0.152344 -1.777343 l -0.007813 -0.007813 c -0.519531 -1.0625 -1.097656 -1.929687 -1.578125 -2.882813 v -1.058593 l 0.125 -0.066407 c 0.277344 -0.15625 0.371094 -0.464843 0.304688 -0.71875 c -0.0625 -0.253906 -0.300781 -0.476562 -0.617188 -0.476562 z m 1.085938 1.273438 h 0.535156 v 1.210937 c 0 0.097656 0.019531 0.191406 0.066406 0.28125 c 0.546875 1.117187 1.160156 2.007813 1.652344 3.011719 c -0.003906 -0.007813 -0.003906 -0.007813 0.003906 0.011718 c 0.003906 0.007813 0.007812 0.015626 0.011719 0.023438 c 0.085937 0.15625 0.09375 0.238281 -0.023438 0.382812 c -0.007812 0.011719 -0.019531 0.023438 -0.019531 0.023438 c -0.003906 0.003906 -0.003906 0.003906 -0.003906 0.007812 c -0.007813 0.007813 -0.101563 0.074219 -0.308594 0.074219 h -3.308594 c -0.210937 0 -0.304687 -0.066406 -0.3125 -0.074219 c -0.015625 -0.023437 -0.019531 -0.027343 -0.015625 -0.023437 c -0.003906 -0.003906 -0.003906 -0.003906 -0.007812 -0.007813 c -0.117188 -0.144531 -0.109375 -0.226562 -0.023438 -0.382812 c 0.292969 -0.535156 0.664063 -1.257812 0.984375 -1.832031 c 0.164063 -0.289063 0.308594 -0.550781 0.425782 -0.753907 c 0.058593 -0.101562 0.113281 -0.191406 0.152343 -0.257812 c 0.023438 -0.03125 0.039063 -0.058594 0.050781 -0.078125 c 0.015626 -0.019531 0.03125 -0.042969 0.015626 -0.023437 c 0.003906 0 0.003906 -0.003907 0.007812 -0.003907 c 0.078125 -0.109375 0.121094 -0.242187 0.121094 -0.378906 z m 0 0" fill="#241f31"/>
</svg>
